<svg width="36" height="36" viewBox="0 0 36 36" fill="none" xmlns="http://www.w3.org/2000/svg">
<g clip-path="url(#clip0_3673_3607)">
<path d="M35.25 18C35.25 27.527 27.527 35.25 18 35.25C8.47308 35.25 0.75 27.527 0.75 18C0.75 8.47308 8.47308 0.75 18 0.75C27.527 0.75 35.25 8.47308 35.25 18Z" fill="white" stroke="black" stroke-width="1.5"/>
<mask id="path-2-outside-1_3673_3607" maskUnits="userSpaceOnUse" x="10" y="10" width="15" height="16" fill="black">
<rect fill="white" x="10" y="10" width="15" height="16"/>
<path d="M25 18.5385H18.5385V25H17.4615V18.5385H11V17.4615H17.4615V11H18.5385V17.4615H25"/>
</mask>
<path d="M25 18.5385H18.5385V25H17.4615V18.5385H11V17.4615H17.4615V11H18.5385V17.4615H25" fill="black"/>
<path d="M18.5385 18.5385V18.0385H18.0385V18.5385H18.5385ZM18.5385 25V25.5H19.0385V25H18.5385ZM17.4615 25H16.9615V25.5H17.4615V25ZM17.4615 18.5385H17.9615V18.0385H17.4615V18.5385ZM11 18.5385H10.5V19.0385H11V18.5385ZM11 17.4615V16.9615H10.5V17.4615H11ZM17.4615 17.4615V17.9615H17.9615V17.4615H17.4615ZM17.4615 11V10.5H16.9615V11H17.4615ZM18.5385 11H19.0385V10.5H18.5385V11ZM18.5385 17.4615H18.0385V17.9615H18.5385V17.4615ZM25 18.0385H18.5385V19.0385H25V18.0385ZM18.0385 18.5385V25H19.0385V18.5385H18.0385ZM18.5385 24.5H17.4615V25.5H18.5385V24.5ZM17.9615 25V18.5385H16.9615V25H17.9615ZM17.4615 18.0385H11V19.0385H17.4615V18.0385ZM11.5 18.5385V17.4615H10.5V18.5385H11.5ZM11 17.9615H17.4615V16.9615H11V17.9615ZM17.9615 17.4615V11H16.9615V17.4615H17.9615ZM17.4615 11.5H18.5385V10.5H17.4615V11.5ZM18.0385 11V17.4615H19.0385V11H18.0385ZM18.5385 17.9615H25V16.9615H18.5385V17.9615Z" fill="black" mask="url(#path-2-outside-1_3673_3607)"/>
</g>
<defs>
<clipPath id="clip0_3673_3607">
<rect width="36" height="36" fill="white"/>
</clipPath>
</defs>
</svg>
